<?xml version="1.0" encoding="UTF-8"?>
<svg xmlns="http://www.w3.org/2000/svg" xmlns:xlink="http://www.w3.org/1999/xlink" width="626px" height="422px" viewBox="0 0 626 422" version="1.1">
<g id="surface1">
<path style=" stroke:none;fill-rule:nonzero;fill:rgb(100%,100%,100%);fill-opacity:1;" d="M 258.507812 10.117188 L 259.429688 10.117188 C 270.757812 26.734375 285.269531 41.894531 303.507812 50.820312 C 305.101562 42.96875 307.921875 35.414062 312.214844 28.671875 C 316.949219 36.285156 320.855469 44.664062 327.550781 50.84375 C 345.988281 67.519531 371.242188 74.222656 389.453125 91.1875 C 399.953125 100.777344 403.996094 116.199219 399.082031 129.628906 C 415.941406 138.050781 432.238281 151.816406 435.726562 171.28125 L 435.726562 177.179688 C 420.394531 174.050781 404.320312 172.65625 388.949219 176.089844 C 382.386719 177.726562 374.023438 180.632812 372.855469 188.289062 C 371.125 199.105469 380.433594 208.152344 389.957031 211.101562 C 398.316406 213.523438 407.359375 217.640625 410.910156 226.203125 C 414.253906 234.949219 415.464844 244.453125 415.15625 253.746094 C 414.960938 259.457031 410.445312 264.667969 404.707031 265.132812 C 400.574219 265.355469 396.546875 264.144531 392.515625 263.660156 C 401.558594 272.945312 417.417969 272.320312 425.898438 282.09375 C 423.757812 290.027344 412.179688 293.054688 405.832031 294.914062 C 383.148438 300.023438 357.921875 297.316406 338.269531 284.316406 C 340.570312 290.875 344.433594 297.15625 344.878906 304.265625 C 345.363281 306.988281 343.648438 309.152344 341.191406 309.996094 C 329.824219 310.363281 319.417969 299.984375 314.066406 292.570312 C 304.472656 278.238281 301.671875 260.609375 300.625 243.730469 C 287.1875 254.410156 278.539062 270.300781 275.375 287.039062 C 273.898438 292.230469 273.457031 298.390625 269.222656 302.203125 C 263.277344 302.40625 258.484375 298.042969 254.132812 294.511719 C 236.238281 278.117188 224.992188 255.078125 221.515625 231.109375 C 219.425781 234.199219 217.316406 237.652344 213.605469 238.886719 C 208.984375 239.40625 206.597656 234.726562 205.820312 230.929688 C 203.351562 219.339844 203.667969 207.222656 206.113281 195.636719 C 209.914062 177.058594 217.019531 158.664062 229.804688 144.390625 C 234.625 138.492188 240.828125 133.949219 246.109375 128.457031 C 238.472656 131.507812 229.65625 128.800781 222.96875 124.578125 C 211.539062 116.847656 206.957031 102.671875 205.226562 89.550781 C 202.972656 69.742188 202.914062 49.507812 206.136719 29.761719 C 218.476562 42.140625 235.167969 48.679688 251.835938 52.679688 C 249.636719 38.101562 252.617188 23.417969 258.484375 10.09375 "/>
<path style=" stroke:none;fill-rule:nonzero;fill:rgb(66.27451%,14.901961%,10.980392%);fill-opacity:1;" d="M 67.085938 350.300781 L 115.449219 350.300781 C 115.761719 353.953125 115.691406 357.652344 115.449219 361.324219 L 85.347656 361.546875 L 85.347656 377.355469 L 112.855469 377.558594 C 113.261719 381.070312 113.535156 384.863281 112.734375 388.316406 L 94.011719 388.523438 C 92.632812 388.316406 90.804688 388.929688 89.828125 387.652344 C 88.109375 385.574219 86.800781 383.210938 85.363281 380.933594 C 85.285156 390.90625 85.285156 400.882812 85.363281 410.832031 L 71.292969 410.832031 C 71.371094 395.410156 71.292969 379.960938 71.371094 364.515625 C 71.867188 359.390625 68.335938 355.167969 67.097656 350.378906 Z M 67.085938 350.300781 "/>
<path style=" stroke:none;fill-rule:nonzero;fill:rgb(83.137255%,26.27451%,19.607843%);fill-opacity:1;" d="M 262.34375 62.390625 C 259.597656 50.640625 259.40625 38.285156 261.984375 26.472656 C 266.378906 33.597656 272.207031 39.675781 278.4375 45.210938 C 287.738281 53.144531 298.640625 59.890625 310.894531 61.84375 C 310.792969 56.675781 311.304688 51.46875 313.113281 46.601562 C 316.75 55.226562 324.410156 61.117188 332.089844 65.945312 C 345.574219 74.382812 360.414062 80.445312 373.703125 89.226562 C 380.007812 93.464844 386.171875 98.371094 390.117188 104.996094 C 393.929688 111.273438 394.9375 119.269531 392.515625 126.214844 C 390.746094 121.050781 388.46875 115.859375 384.519531 111.960938 C 377.550781 104.914062 368.402344 100.632812 359.292969 97.101562 C 337.523438 88.699219 314.320312 84.035156 293.472656 73.273438 C 287.289062 70.207031 282.066406 65.601562 276.949219 61.015625 C 276.699219 66.25 277.035156 71.5 278.339844 76.566406 C 263.992188 80.742188 248.46875 79.027344 234.636719 73.777344 C 231.0625 72.449219 227.625 70.8125 224.148438 69.257812 C 223.121094 79.148438 223.453125 89.371094 226.261719 98.976562 C 228.117188 105.5 231.867188 111.597656 237.496094 115.492188 C 241.679688 118.722656 246.933594 120.15625 252.160156 120.34375 C 243.847656 122.804688 234.0625 122.761719 226.808594 117.496094 C 220.59375 112.847656 217.871094 105.160156 215.917969 97.945312 C 211.878906 81.253906 211.519531 63.90625 211.992188 46.820312 C 218.035156 52.457031 225.785156 55.847656 233.617188 58.191406 C 242.929688 60.894531 252.617188 62.632812 262.34375 62.390625 Z M 262.34375 62.390625 "/>
<path style=" stroke:none;fill-rule:nonzero;fill:rgb(83.137255%,26.27451%,19.607843%);fill-opacity:1;" d="M 363.445312 194.84375 C 363.832031 192.28125 365.84375 190.402344 367.199219 188.289062 C 366.390625 194.90625 366.996094 202.175781 371.585938 207.402344 C 378.921875 216.191406 390.664062 218.59375 400.210938 224 C 405.652344 228.324219 406.675781 235.835938 407.785156 242.253906 C 406.070312 243.285156 404.363281 244.683594 402.265625 244.71875 C 397.898438 244.921875 393.867188 242.824219 390.199219 240.683594 C 381.296875 235.246094 373.820312 227.597656 368.242188 218.816406 C 365.585938 214.433594 362.96875 209.730469 362.703125 204.496094 C 362.703125 201.265625 363.1875 198.058594 363.445312 194.84375 Z M 363.445312 194.84375 "/>
<path style=" stroke:none;fill-rule:nonzero;fill:rgb(66.27451%,14.901961%,10.980392%);fill-opacity:1;" d="M 276.949219 61.015625 C 282.066406 65.601562 287.289062 70.207031 293.472656 73.273438 C 314.320312 84.035156 337.523438 88.699219 359.292969 97.101562 C 368.402344 100.632812 377.550781 104.914062 384.519531 111.960938 C 388.46875 115.859375 390.746094 121.050781 392.515625 126.214844 C 392.515625 126.480469 392.738281 126.964844 392.820312 127.207031 C 390.421875 124.921875 388.488281 122.175781 385.867188 120.097656 C 377.046875 112.808594 365.988281 108.851562 354.960938 106.308594 C 343.242188 103.660156 331.167969 102.890625 319.171875 103.300781 C 298.292969 103.5625 277.800781 109.320312 258.796875 117.714844 C 256.625 118.6875 254.503906 119.839844 252.167969 120.34375 C 246.933594 120.136719 241.679688 118.722656 237.496094 115.492188 C 231.867188 111.597656 228.117188 105.5 226.261719 98.976562 C 223.453125 89.371094 223.121094 79.148438 224.148438 69.257812 C 227.628906 70.8125 231.070312 72.449219 234.636719 73.777344 C 248.46875 79.027344 263.996094 80.742188 278.339844 76.566406 C 276.996094 71.5 276.703125 66.25 276.949219 61.015625 Z M 276.949219 61.015625 "/>
<path style=" stroke:none;fill-rule:nonzero;fill:rgb(66.27451%,14.901961%,10.980392%);fill-opacity:1;" d="M 363.507812 194.121094 L 363.507812 194.84375 C 363.226562 198.058594 362.683594 201.265625 362.761719 204.496094 C 363.003906 209.730469 365.644531 214.433594 368.285156 218.816406 C 373.882812 227.597656 381.355469 235.246094 390.261719 240.683594 C 393.929688 242.824219 397.957031 244.863281 402.308594 244.71875 C 404.421875 244.71875 406.113281 243.285156 407.847656 242.253906 C 408.050781 246.234375 408.492188 250.25 408.050781 254.230469 C 407.640625 256.816406 404.527344 257.601562 402.308594 257.113281 C 396.300781 256.105469 391.105469 252.636719 386.292969 249.125 C 377.105469 242.03125 368.445312 233.675781 363.507812 223.011719 C 359.246094 214.007812 358.933594 203.003906 363.710938 194.121094 Z M 363.507812 194.121094 "/>
<path style=" stroke:none;fill-rule:nonzero;fill:rgb(1.176471%,23.529412%,44.313725%);fill-opacity:1;" d="M 321.0625 111.699219 C 336.558594 109.738281 352.503906 111.699219 367.234375 116.804688 C 376.421875 120.097656 385.851562 125.371094 390.175781 134.597656 C 405.875 141.179688 420.636719 152.363281 427.648438 168.339844 C 415.746094 162.542969 403.050781 158.605469 390.21875 155.414062 C 379.90625 153.011719 369.492188 150.914062 358.953125 149.738281 C 360.40625 148.023438 361.882812 146.164062 362.300781 143.882812 C 363.003906 141.398438 362.140625 138.875 361.398438 136.515625 C 361.292969 141.136719 358.226562 146.710938 352.980469 146.386719 C 353.519531 141.484375 355.792969 137.019531 357.203125 132.335938 C 353.359375 130.699219 348.59375 130.761719 345.371094 133.667969 C 341.132812 137.058594 340.574219 143.601562 343.644531 147.964844 C 335.027344 147.417969 326.378906 147.761719 317.800781 148.75 C 310.914062 149.558594 304.003906 150.625 297.421875 152.890625 C 296.019531 153.351562 294.59375 153.734375 293.15625 154.042969 C 293.472656 150.75 294.59375 147.621094 295.613281 144.511719 C 297.878906 137.707031 300.726562 130.980469 305.011719 125.183594 C 307.289062 127.265625 310.136719 128.980469 313.335938 128.78125 C 318.515625 128.78125 323.105469 124.28125 323.367188 119.105469 C 323.664062 116.402344 322.421875 113.921875 321.0625 111.699219 Z M 321.0625 111.699219 "/>
<path style=" stroke:none;fill-rule:nonzero;fill:rgb(1.176471%,23.529412%,44.313725%);fill-opacity:1;" d="M 274.445312 123.070312 C 283.957031 118.765625 293.953125 115.65625 304.105469 113.316406 C 289.1875 128.597656 279.246094 148.867188 276.828125 170.171875 C 276.667969 171.546875 276.492188 173.421875 277.890625 174.230469 C 279.222656 174.792969 280.671875 174.230469 281.929688 173.769531 C 308.949219 161.347656 339.402344 158.765625 368.746094 160.820312 C 380.972656 161.75 393.160156 163.445312 405.183594 165.933594 C 407.546875 166.421875 409.960938 166.804688 412.078125 168.015625 C 409.09375 168.816406 405.992188 168.496094 402.949219 168.621094 C 395.175781 168.859375 387.257812 169.644531 379.988281 172.59375 C 369.46875 177.121094 360.292969 185.535156 356.261719 196.441406 C 352.3125 206.882812 352.839844 218.511719 355.257812 229.253906 C 358.128906 241.488281 364.980469 252.59375 374.164062 261.09375 C 383.589844 269.898438 395.117188 276.339844 407.382812 280.234375 C 409.859375 281.105469 412.785156 281.1875 414.578125 283.328125 C 412.238281 285.527344 408.9375 285.886719 405.976562 286.679688 C 391.890625 290.046875 376.984375 290.453125 362.882812 286.882812 C 350.746094 283.8125 339.144531 278.015625 329.878906 269.492188 C 328.066406 278.785156 330.519531 288.375 334.90625 296.59375 C 335.835938 298.1875 336.546875 299.902344 336.839844 301.71875 C 326.226562 298.265625 317.328125 283.242188 314.042969 274.582031 C 310.832031 266.164062 309.445312 257.15625 308.796875 248.210938 C 308.636719 246.738281 308.917969 245.289062 309.378906 243.890625 C 319.402344 252.3125 331.421875 259.054688 344.632812 260.410156 C 347.136719 260.410156 349.996094 260.992188 352.226562 259.542969 C 353.160156 258.390625 352.226562 257.035156 351.566406 256.066406 C 344.253906 246.191406 340.246094 234.179688 338.542969 222.082031 C 336.570312 207.308594 338.96875 191.699219 346.742188 178.835938 C 347.5 177.480469 348.734375 175.847656 347.882812 174.230469 C 346.6875 172.898438 344.699219 173.386719 343.152344 173.503906 C 330.1875 175.339844 317.355469 178.953125 305.765625 185.175781 C 295.636719 190.566406 286.539062 197.894531 279.25 206.78125 C 263.648438 225.722656 256.410156 251 258.296875 275.371094 C 258.4375 278.359375 259.3125 281.308594 259.066406 284.316406 C 257.578125 285.605469 255.851562 283.933594 254.832031 282.84375 C 235.800781 261.496094 226.574219 232.339844 227.59375 203.914062 C 223.535156 208.390625 220.355469 213.609375 218.078125 219.199219 C 216.957031 221.597656 216.386719 224.265625 214.960938 226.523438 C 213.316406 227.699219 212.453125 225.597656 212.515625 224.222656 C 211.328125 199.855469 218.003906 174.757812 232.878906 155.230469 C 243.578125 141.035156 258.320312 130.273438 274.445312 123.070312 Z M 274.445312 123.070312 "/>
<path style=" stroke:none;fill-rule:nonzero;fill:rgb(1.176471%,23.529412%,44.313725%);fill-opacity:1;" d="M 310.699219 202.660156 C 313.378906 201.308594 316.0625 199.414062 319.171875 199.472656 C 321.34375 199.472656 321.410156 202.132812 321.4375 203.753906 C 321.355469 218.023438 325.234375 232.28125 332.246094 244.699219 C 332.761719 245.671875 333.214844 246.660156 333.660156 247.667969 C 322.570312 246.457031 313.101562 239.289062 306.171875 230.890625 C 296.097656 236.039062 287.679688 244.113281 281.34375 253.421875 C 274.390625 263.617188 270.207031 275.492188 268.03125 287.566406 C 267.730469 288.496094 267.316406 289.382812 266.777344 290.191406 C 265.867188 289.039062 264.914062 287.804688 264.796875 286.292969 C 262.734375 270.078125 266.273438 253.300781 274.300781 239.105469 C 282.828125 223.941406 295.59375 211.203125 310.699219 202.660156 Z M 310.699219 202.660156 "/>
<path style=" stroke:none;fill-rule:nonzero;fill:rgb(1.176471%,23.529412%,44.313725%);fill-opacity:1;" d="M 126.351562 410.796875 C 126.351562 390.582031 126.351562 370.390625 126.351562 350.183594 C 130.992188 350.183594 135.636719 350.183594 140.277344 350.183594 C 140.277344 358.519531 140.277344 366.835938 140.277344 375.179688 C 150.03125 375.179688 159.789062 375.179688 169.535156 375.179688 C 169.535156 366.835938 169.535156 358.519531 169.535156 350.183594 C 174.203125 350.183594 178.886719 350.183594 183.554688 350.183594 C 183.554688 370.371094 183.554688 390.582031 183.554688 410.773438 C 178.886719 410.773438 174.214844 410.773438 169.542969 410.773438 C 169.542969 402.675781 169.542969 394.558594 169.542969 386.464844 C 162.363281 386.464844 155.1875 386.464844 148 386.464844 C 146.941406 386.464844 145.644531 386.664062 144.867188 385.699219 C 143.039062 383.738281 141.773438 381.316406 140.277344 379.109375 C 140.277344 389.65625 140.277344 400.210938 140.277344 410.753906 C 135.636719 410.753906 130.992188 410.753906 126.359375 410.753906 Z M 126.351562 410.796875 "/>
<path style=" stroke:none;fill-rule:nonzero;fill:rgb(1.176471%,23.529412%,44.313725%);fill-opacity:1;" d="M 200.3125 350.277344 C 209.066406 350.082031 217.820312 350.277344 226.582031 350.277344 C 233.210938 350.277344 240.355469 352.886719 244.003906 358.742188 C 247.820312 364.515625 247.859375 371.683594 247.714844 378.367188 C 247.628906 388.34375 247.773438 398.316406 247.628906 408.289062 C 247.792969 409.902344 246.289062 411.019531 244.777344 410.816406 C 235.308594 410.816406 225.84375 410.816406 216.378906 410.816406 C 210.261719 410.816406 203.738281 409.441406 199.101562 405.199219 C 194.203125 400.695312 192.796875 393.328125 194.234375 387.011719 C 195.421875 381.796875 199.414062 377.558594 204.28125 375.5625 C 209.917969 373.015625 216.25 373.621094 222.257812 373.542969 C 223.542969 373.738281 225.171875 373.296875 226.046875 374.507812 C 228.414062 377.421875 230.636719 380.523438 232.191406 383.976562 C 227.175781 384.183594 222.164062 383.976562 217.152344 383.976562 C 214.808594 383.976562 212.324219 384.582031 210.613281 386.304688 C 207.550781 389.371094 208.03125 395.1875 211.621094 397.667969 C 213.652344 399.101562 216.222656 399.347656 218.644531 399.367188 C 223.648438 399.367188 228.65625 399.367188 233.671875 399.367188 C 233.671875 390.621094 233.671875 381.898438 233.671875 373.160156 C 233.585938 370.371094 233.414062 367.402344 231.84375 365.019531 C 230.398438 362.84375 227.753906 361.8125 225.25 361.605469 C 216.996094 361.183594 208.679688 361.890625 200.445312 361.265625 C 199.8125 357.628906 200.109375 353.917969 200.28125 350.261719 Z M 200.3125 350.277344 "/>
<path style=" stroke:none;fill-rule:nonzero;fill:rgb(1.176471%,23.529412%,44.313725%);fill-opacity:1;" d="M 255.355469 350.339844 C 260.597656 350.082031 265.855469 350.140625 271.101562 350.339844 C 272.492188 350.339844 273.371094 351.554688 274.214844 352.460938 C 284.371094 364.820312 294.671875 377.035156 304.777344 389.410156 C 304.691406 376.367188 304.777344 363.320312 304.777344 350.300781 C 308.769531 350.300781 312.761719 350.300781 316.757812 350.300781 C 316.757812 370.492188 316.757812 390.6875 316.757812 410.890625 C 313.695312 410.890625 310.613281 410.890625 307.550781 410.890625 C 305.527344 410.890625 304.105469 409.339844 302.914062 407.90625 C 292.945312 395.871094 282.871094 383.917969 272.921875 371.84375 C 272.921875 384.890625 272.921875 397.910156 272.921875 410.953125 C 268.882812 410.953125 264.835938 410.953125 260.804688 410.953125 C 260.804688 393.304688 260.882812 375.640625 260.71875 358.011719 C 259.722656 355.101562 256.738281 353.289062 255.34375 350.523438 Z M 255.355469 350.339844 "/>
<path style=" stroke:none;fill-rule:nonzero;fill:rgb(1.176471%,23.529412%,44.313725%);fill-opacity:1;" d="M 329.871094 350.183594 L 357.789062 350.183594 C 365.765625 350.378906 374.101562 352.5625 379.929688 358.273438 C 385.082031 363.261719 387.359375 370.515625 387.683594 377.558594 C 388.027344 385.171875 386.617188 393.226562 382.082031 399.527344 C 378.316406 404.839844 372.429688 408.394531 366.148438 409.800781 C 360.785156 411.136719 355.234375 410.671875 349.777344 410.753906 C 344.191406 410.753906 338.605469 410.753906 333.019531 410.753906 C 331.214844 410.996094 329.679688 409.296875 329.890625 407.542969 C 329.804688 388.417969 329.890625 369.296875 329.890625 350.183594 M 343.800781 361.503906 L 343.800781 396.578125 C 343.738281 397.628906 343.800781 399.058594 345.386719 398.980469 C 346.425781 398.980469 358.304688 400.011719 364.09375 397.082031 C 368.886719 394.640625 371.328125 389.3125 371.96875 384.183594 C 372.574219 378.648438 372.675781 372.628906 369.8125 367.667969 C 367.558594 363.707031 362.96875 361.726562 358.597656 361.546875 C 353.664062 361.34375 348.726562 361.546875 343.800781 361.546875 Z M 343.800781 361.503906 "/>
<path style=" stroke:none;fill-rule:nonzero;fill:rgb(1.176471%,23.529412%,44.313725%);fill-opacity:1;" d="M 393.945312 350.277344 C 405.183594 350.054688 416.445312 350.277344 427.691406 350.277344 C 434.191406 350.277344 441.28125 351.632812 446.019531 356.441406 C 449.984375 360.335938 450.675781 366.714844 448.558594 371.703125 C 447.269531 374.792969 444.667969 377.011719 442.03125 378.929688 C 445.554688 380.328125 448.796875 382.664062 450.589844 386.082031 C 453.953125 392.417969 452.40625 401.0625 446.84375 405.648438 C 442.171875 409.605469 435.828125 410.855469 429.867188 410.890625 C 420.394531 410.890625 410.925781 410.890625 401.480469 410.890625 C 399.707031 410.890625 398.136719 409.460938 398.296875 407.6875 C 398.296875 392.359375 398.296875 377.035156 398.296875 361.726562 C 397.410156 357.789062 395.15625 354.316406 394.023438 350.421875 M 412.257812 361.242188 C 412.257812 365.527344 412.257812 369.824219 412.257812 374.125 C 417.171875 374.125 422.109375 374.125 427.023438 374.125 C 428.734375 374.125 430.589844 374.125 432.117188 373.21875 C 435 371.640625 436.109375 367.667969 434.78125 364.734375 C 433.46875 362.195312 430.429688 361.242188 427.75 361.222656 C 422.589844 361.222656 417.417969 361.222656 412.257812 361.222656 M 412.257812 384.363281 C 412.257812 389.210938 412.058594 394.054688 412.460938 398.902344 C 412.660156 399.101562 413.023438 399.46875 413.222656 399.648438 C 417.136719 399.894531 421.042969 399.648438 424.949219 399.851562 C 427.851562 399.851562 430.890625 400.132812 433.628906 398.941406 C 438.066406 397.082031 439.414062 390.5 436.1875 386.96875 C 434.234375 384.96875 431.292969 384.503906 428.636719 384.464844 C 423.195312 384.464844 417.757812 384.464844 412.339844 384.464844 Z M 412.257812 384.363281 "/>
<path style=" stroke:none;fill-rule:nonzero;fill:rgb(1.176471%,23.529412%,44.313725%);fill-opacity:1;" d="M 572.988281 402.417969 C 572.988281 385.007812 572.988281 367.601562 572.988281 350.183594 L 586.90625 350.183594 L 586.90625 398.582031 L 614.847656 398.582031 C 615.289062 402.433594 615.332031 406.9375 614.546875 410.753906 L 581.410156 410.753906 C 576.855469 410.953125 572.988281 406.917969 573.007812 402.417969 Z M 572.988281 402.417969 "/>
<path style=" stroke:none;fill-rule:nonzero;fill:rgb(66.27451%,14.901961%,10.980392%);fill-opacity:1;" d="M 10.84375 350.300781 L 59.203125 350.300781 C 59.519531 353.953125 59.441406 357.652344 59.203125 361.324219 L 29.105469 361.546875 L 29.105469 377.355469 L 56.613281 377.558594 C 57.019531 381.070312 57.292969 384.863281 56.492188 388.316406 L 37.769531 388.523438 C 36.390625 388.316406 34.5625 388.929688 33.585938 387.652344 C 31.867188 385.574219 30.554688 383.210938 29.121094 380.933594 C 29.042969 390.90625 29.042969 400.882812 29.121094 410.832031 L 15.050781 410.832031 C 15.128906 395.410156 15.050781 379.960938 15.128906 364.515625 C 15.625 359.390625 12.089844 355.167969 10.855469 350.378906 Z M 10.84375 350.300781 "/>
<path style=" stroke:none;fill-rule:nonzero;fill:rgb(1.176471%,23.529412%,44.313725%);fill-opacity:1;" d="M 467.226562 350.277344 C 475.992188 350.082031 484.757812 350.277344 493.496094 350.277344 C 500.125 350.277344 507.277344 352.886719 510.921875 358.742188 C 514.75 364.515625 514.792969 371.683594 514.628906 378.367188 C 514.628906 388.34375 514.628906 398.316406 514.628906 408.289062 C 514.835938 409.902344 513.28125 411.019531 511.773438 410.816406 C 502.300781 410.816406 492.832031 410.816406 483.367188 410.816406 C 477.261719 410.816406 470.734375 409.441406 466.101562 405.199219 C 461.207031 400.695312 459.796875 393.328125 461.230469 387.011719 C 462.414062 381.796875 466.40625 377.558594 471.261719 375.5625 C 476.917969 373.015625 483.242188 373.621094 489.25 373.542969 C 490.535156 373.738281 492.167969 373.296875 493.035156 374.507812 C 495.410156 377.421875 497.628906 380.523438 499.179688 383.976562 C 494.164062 384.183594 489.144531 383.976562 484.152344 383.976562 C 481.792969 383.976562 479.316406 384.582031 477.601562 386.304688 C 474.539062 389.371094 475.027344 395.1875 478.609375 397.667969 C 480.648438 399.101562 483.226562 399.347656 485.640625 399.367188 C 490.640625 399.367188 495.65625 399.367188 500.671875 399.367188 C 500.671875 390.621094 500.671875 381.898438 500.671875 373.160156 C 500.671875 370.371094 500.40625 367.402344 498.835938 365.019531 C 497.386719 362.84375 494.75 361.8125 492.25 361.605469 C 483.992188 361.183594 475.671875 361.890625 467.433594 361.265625 C 466.808594 357.628906 467.109375 353.917969 467.226562 350.261719 Z M 467.226562 350.277344 "/>
<path style=" stroke:none;fill-rule:nonzero;fill:rgb(1.176471%,23.529412%,44.313725%);fill-opacity:1;" d="M 525.183594 402.417969 C 525.183594 385.007812 525.183594 367.601562 525.183594 350.183594 L 539.125 350.183594 L 539.125 398.582031 L 567.066406 398.582031 C 567.484375 402.433594 567.546875 406.9375 566.761719 410.753906 L 533.625 410.753906 C 529.074219 410.953125 525.183594 406.917969 525.203125 402.417969 Z M 525.183594 402.417969 "/>
</g>
</svg>
