<?xml version="1.0" encoding="UTF-8"?>
<svg xmlns="http://www.w3.org/2000/svg" xmlns:xlink="http://www.w3.org/1999/xlink" width="408px" height="275px" viewBox="0 0 407 275" version="1.1">
<g id="surface1">
<path style=" stroke:none;fill-rule:nonzero;fill:rgb(100%,100%,100%);fill-opacity:1;" d="M 167.984375 6.59375 L 168.585938 6.59375 C 175.96875 17.421875 185.425781 27.300781 197.3125 33.117188 C 198.351562 28 200.191406 23.078125 202.988281 18.683594 C 206.074219 23.644531 208.621094 29.105469 212.984375 33.132812 C 225 44 241.460938 48.367188 253.328125 59.421875 C 260.171875 65.671875 262.808594 75.722656 259.605469 84.472656 C 270.59375 89.960938 281.214844 98.933594 283.488281 111.617188 L 283.488281 115.460938 C 273.496094 113.421875 263.019531 112.511719 253 114.75 C 248.722656 115.816406 243.273438 117.710938 242.511719 122.699219 C 241.382812 129.75 247.449219 135.644531 253.65625 137.566406 C 259.105469 139.144531 265 141.828125 267.3125 147.40625 C 269.492188 153.105469 270.28125 159.300781 270.082031 165.355469 C 269.953125 169.078125 267.011719 172.472656 263.269531 172.777344 C 260.578125 172.921875 257.953125 172.132812 255.324219 171.816406 C 261.21875 177.867188 271.554688 177.460938 277.082031 183.828125 C 275.6875 189 268.140625 190.972656 264.003906 192.183594 C 249.21875 195.511719 232.777344 193.75 219.96875 185.277344 C 221.46875 189.550781 223.988281 193.644531 224.277344 198.277344 C 224.59375 200.050781 223.476562 201.460938 221.875 202.011719 C 214.464844 202.25 207.683594 195.488281 204.195312 190.65625 C 197.941406 181.316406 196.117188 169.828125 195.433594 158.828125 C 186.675781 165.789062 181.039062 176.144531 178.976562 187.050781 C 178.015625 190.433594 177.726562 194.449219 174.96875 196.933594 C 171.09375 197.066406 167.96875 194.222656 165.132812 191.921875 C 153.46875 181.238281 146.140625 166.222656 143.875 150.605469 C 142.511719 152.617188 141.136719 154.867188 138.71875 155.671875 C 135.707031 156.011719 134.152344 152.960938 133.644531 150.488281 C 132.035156 142.933594 132.242188 135.039062 133.835938 127.488281 C 136.3125 115.382812 140.945312 103.394531 149.277344 94.09375 C 152.417969 90.25 156.460938 87.289062 159.902344 83.710938 C 154.925781 85.699219 149.179688 83.933594 144.820312 81.183594 C 137.371094 76.144531 134.386719 66.90625 133.257812 58.355469 C 131.789062 45.449219 131.75 32.261719 133.851562 19.394531 C 141.894531 27.460938 152.773438 31.722656 163.636719 34.328125 C 162.203125 24.828125 164.144531 15.261719 167.96875 6.578125 "/>
<path style=" stroke:none;fill-rule:nonzero;fill:rgb(66.27451%,14.901961%,10.980392%);fill-opacity:1;" d="M 43.222656 228.277344 L 74.746094 228.277344 C 74.949219 230.65625 74.902344 233.066406 74.746094 235.460938 L 55.125 235.605469 L 55.125 245.90625 L 73.054688 246.039062 C 73.320312 248.328125 73.496094 250.800781 72.976562 253.050781 L 60.773438 253.183594 C 59.875 253.050781 58.683594 253.449219 58.046875 252.617188 C 56.925781 251.261719 56.074219 249.722656 55.136719 248.238281 C 55.085938 254.738281 55.085938 261.238281 55.136719 267.722656 L 45.964844 267.722656 C 46.015625 257.671875 45.964844 247.605469 46.015625 237.539062 C 46.339844 234.199219 44.039062 231.449219 43.230469 228.328125 Z M 43.222656 228.277344 "/>
<path style=" stroke:none;fill-rule:nonzero;fill:rgb(83.137255%,26.27451%,19.607843%);fill-opacity:1;" d="M 170.484375 40.65625 C 168.695312 33 168.570312 24.949219 170.25 17.25 C 173.113281 21.894531 176.914062 25.855469 180.972656 29.460938 C 187.035156 34.632812 194.140625 39.027344 202.128906 40.300781 C 202.0625 36.933594 202.394531 33.539062 203.574219 30.367188 C 205.945312 35.988281 210.9375 39.828125 215.941406 42.972656 C 224.730469 48.472656 234.402344 52.421875 243.0625 58.144531 C 247.171875 60.90625 251.191406 64.105469 253.761719 68.421875 C 256.246094 72.511719 256.902344 77.722656 255.324219 82.25 C 254.171875 78.882812 252.6875 75.5 250.113281 72.960938 C 245.570312 68.367188 239.609375 65.578125 233.671875 63.277344 C 219.484375 57.800781 204.359375 54.761719 190.773438 47.75 C 186.742188 45.75 183.339844 42.75 180.003906 39.761719 C 179.839844 43.171875 180.058594 46.59375 180.910156 49.894531 C 171.558594 52.617188 161.441406 51.5 152.425781 48.078125 C 150.097656 47.210938 147.855469 46.144531 145.589844 45.132812 C 144.921875 51.578125 145.136719 58.238281 146.96875 64.5 C 148.175781 68.75 150.621094 72.722656 154.289062 75.261719 C 157.015625 77.367188 160.441406 78.300781 163.847656 78.421875 C 158.429688 80.027344 152.050781 80 147.324219 76.566406 C 143.273438 73.539062 141.5 68.527344 140.226562 63.828125 C 137.59375 52.949219 137.359375 41.644531 137.667969 30.511719 C 141.605469 34.183594 146.65625 36.394531 151.761719 37.921875 C 157.832031 39.683594 164.144531 40.816406 170.484375 40.65625 Z M 170.484375 40.65625 "/>
<path style=" stroke:none;fill-rule:nonzero;fill:rgb(83.137255%,26.27451%,19.607843%);fill-opacity:1;" d="M 236.378906 126.972656 C 236.628906 125.300781 237.941406 124.078125 238.824219 122.699219 C 238.296875 127.011719 238.691406 131.75 241.683594 135.15625 C 246.464844 140.882812 254.117188 142.449219 260.339844 145.972656 C 263.886719 148.789062 264.554688 153.683594 265.277344 157.867188 C 264.160156 158.539062 263.046875 159.449219 261.679688 159.472656 C 258.832031 159.605469 256.207031 158.238281 253.816406 156.84375 C 248.011719 153.300781 243.140625 148.316406 239.503906 142.59375 C 237.773438 139.738281 236.066406 136.671875 235.894531 133.261719 C 235.894531 131.15625 236.210938 129.066406 236.378906 126.972656 Z M 236.378906 126.972656 "/>
<path style=" stroke:none;fill-rule:nonzero;fill:rgb(66.27451%,14.901961%,10.980392%);fill-opacity:1;" d="M 180.003906 39.761719 C 183.339844 42.75 186.742188 45.75 190.773438 47.75 C 204.359375 54.761719 219.484375 57.800781 233.671875 63.277344 C 239.609375 65.578125 245.570312 68.367188 250.113281 72.960938 C 252.6875 75.5 254.171875 78.882812 255.324219 82.25 C 255.324219 82.421875 255.46875 82.738281 255.523438 82.894531 C 253.960938 81.40625 252.699219 79.617188 250.992188 78.261719 C 245.242188 73.511719 238.035156 70.933594 230.847656 69.277344 C 223.210938 67.550781 215.339844 67.050781 207.523438 67.316406 C 193.914062 67.488281 180.558594 71.238281 168.171875 76.710938 C 166.757812 77.34375 165.375 78.09375 163.851562 78.421875 C 160.441406 78.289062 157.015625 77.367188 154.289062 75.261719 C 150.621094 72.722656 148.175781 68.75 146.96875 64.5 C 145.136719 58.238281 144.921875 51.578125 145.589844 45.132812 C 147.859375 46.144531 150.101562 47.210938 152.425781 48.078125 C 161.441406 51.5 171.5625 52.617188 180.910156 49.894531 C 180.035156 46.59375 179.84375 43.171875 180.003906 39.761719 Z M 180.003906 39.761719 "/>
<path style=" stroke:none;fill-rule:nonzero;fill:rgb(66.27451%,14.901961%,10.980392%);fill-opacity:1;" d="M 236.417969 126.5 L 236.417969 126.972656 C 236.234375 129.066406 235.882812 131.15625 235.933594 133.261719 C 236.089844 136.671875 237.8125 139.738281 239.53125 142.59375 C 243.179688 148.316406 248.050781 153.300781 253.855469 156.84375 C 256.246094 158.238281 258.871094 159.566406 261.707031 159.472656 C 263.085938 159.472656 264.1875 158.539062 265.316406 157.867188 C 265.449219 160.460938 265.738281 163.078125 265.449219 165.671875 C 265.183594 167.355469 263.152344 167.867188 261.707031 167.550781 C 257.792969 166.894531 254.40625 164.632812 251.269531 162.34375 C 245.28125 157.722656 239.636719 152.277344 236.417969 145.328125 C 233.640625 139.460938 233.4375 132.289062 236.550781 126.5 Z M 236.417969 126.5 "/>
<path style=" stroke:none;fill-rule:nonzero;fill:rgb(1.176471%,23.529412%,44.313725%);fill-opacity:1;" d="M 208.753906 72.789062 C 218.855469 71.511719 229.246094 72.789062 238.847656 76.117188 C 244.835938 78.261719 250.980469 81.699219 253.800781 87.710938 C 264.03125 92 273.652344 99.289062 278.222656 109.699219 C 270.464844 105.921875 262.191406 103.355469 253.828125 101.277344 C 247.105469 99.710938 240.320312 98.34375 233.449219 97.578125 C 234.398438 96.460938 235.359375 95.25 235.632812 93.761719 C 236.089844 92.144531 235.527344 90.5 235.042969 88.960938 C 234.976562 91.972656 232.976562 95.605469 229.558594 95.394531 C 229.910156 92.199219 231.390625 89.289062 232.308594 86.238281 C 229.804688 85.171875 226.699219 85.210938 224.597656 87.105469 C 221.835938 89.316406 221.472656 93.578125 223.472656 96.421875 C 217.855469 96.066406 212.21875 96.289062 206.628906 96.933594 C 202.140625 97.460938 197.636719 98.15625 193.347656 99.632812 C 192.433594 99.933594 191.503906 100.183594 190.566406 100.382812 C 190.773438 98.238281 191.503906 96.199219 192.167969 94.171875 C 193.644531 89.738281 195.5 85.355469 198.292969 81.578125 C 199.777344 82.933594 201.632812 84.050781 203.71875 83.921875 C 207.09375 83.921875 210.085938 80.988281 210.257812 77.617188 C 210.449219 75.855469 209.640625 74.238281 208.753906 72.789062 Z M 208.753906 72.789062 "/>
<path style=" stroke:none;fill-rule:nonzero;fill:rgb(1.176471%,23.529412%,44.313725%);fill-opacity:1;" d="M 178.371094 80.199219 C 184.570312 77.394531 191.085938 75.367188 197.703125 73.84375 C 187.980469 83.800781 181.5 97.011719 179.925781 110.894531 C 179.820312 111.789062 179.707031 113.011719 180.617188 113.539062 C 181.484375 113.90625 182.429688 113.539062 183.25 113.238281 C 200.859375 105.144531 220.707031 103.460938 239.832031 104.800781 C 247.800781 105.40625 255.746094 106.511719 263.582031 108.132812 C 265.121094 108.449219 266.695312 108.699219 268.074219 109.488281 C 266.128906 110.011719 264.109375 109.800781 262.125 109.882812 C 257.058594 110.039062 251.898438 110.550781 247.160156 112.472656 C 240.304688 115.421875 234.324219 120.90625 231.695312 128.011719 C 229.121094 134.816406 229.464844 142.394531 231.042969 149.394531 C 232.914062 157.367188 237.378906 164.605469 243.363281 170.144531 C 249.507812 175.882812 257.019531 180.078125 265.015625 182.617188 C 266.628906 183.183594 268.535156 183.238281 269.703125 184.632812 C 268.179688 186.066406 266.027344 186.300781 264.097656 186.816406 C 254.917969 189.011719 245.203125 189.277344 236.011719 186.949219 C 228.101562 184.949219 220.539062 181.171875 214.5 175.617188 C 213.320312 181.671875 214.917969 187.921875 217.777344 193.277344 C 218.382812 194.316406 218.847656 195.433594 219.039062 196.617188 C 212.121094 194.367188 206.320312 184.578125 204.179688 178.933594 C 202.085938 173.449219 201.183594 167.578125 200.761719 161.75 C 200.65625 160.789062 200.839844 159.84375 201.140625 158.933594 C 207.671875 164.421875 215.507812 168.816406 224.117188 169.699219 C 225.75 169.699219 227.613281 170.078125 229.066406 169.132812 C 229.675781 168.382812 229.066406 167.5 228.636719 166.867188 C 223.871094 160.433594 221.257812 152.605469 220.148438 144.722656 C 218.863281 135.09375 220.425781 124.921875 225.492188 116.539062 C 225.984375 115.65625 226.789062 114.59375 226.234375 113.539062 C 225.457031 112.671875 224.160156 112.988281 223.152344 113.066406 C 214.703125 114.261719 206.339844 116.617188 198.785156 120.671875 C 192.183594 124.183594 186.253906 128.960938 181.503906 134.75 C 171.335938 147.09375 166.617188 163.566406 167.847656 179.449219 C 167.9375 181.394531 168.507812 183.316406 168.347656 185.277344 C 167.378906 186.117188 166.253906 185.027344 165.589844 184.316406 C 153.183594 170.40625 147.171875 151.40625 147.835938 132.882812 C 145.191406 135.800781 143.117188 139.199219 141.632812 142.84375 C 140.902344 144.40625 140.53125 146.144531 139.601562 147.617188 C 138.53125 148.382812 137.96875 147.011719 138.007812 146.117188 C 137.234375 130.238281 141.585938 113.882812 151.28125 101.15625 C 158.253906 91.90625 167.863281 84.894531 178.371094 80.199219 Z M 178.371094 80.199219 "/>
<path style=" stroke:none;fill-rule:nonzero;fill:rgb(1.176471%,23.529412%,44.313725%);fill-opacity:1;" d="M 202 132.066406 C 203.746094 131.183594 205.496094 129.949219 207.523438 129.988281 C 208.9375 129.988281 208.980469 131.722656 209 132.777344 C 208.945312 142.078125 211.472656 151.367188 216.042969 159.460938 C 216.378906 160.09375 216.675781 160.738281 216.964844 161.394531 C 209.738281 160.605469 203.566406 155.933594 199.050781 150.460938 C 192.484375 153.816406 186.996094 159.078125 182.867188 165.144531 C 178.335938 171.789062 175.609375 179.527344 174.191406 187.394531 C 173.996094 188 173.726562 188.578125 173.375 189.105469 C 172.78125 188.355469 172.160156 187.550781 172.082031 186.566406 C 170.738281 176 173.046875 165.066406 178.277344 155.816406 C 183.835938 145.933594 192.15625 137.632812 202 132.066406 Z M 202 132.066406 "/>
<path style=" stroke:none;fill-rule:nonzero;fill:rgb(1.176471%,23.529412%,44.313725%);fill-opacity:1;" d="M 81.851562 267.699219 C 81.851562 254.527344 81.851562 241.367188 81.851562 228.199219 C 84.875 228.199219 87.902344 228.199219 90.925781 228.199219 C 90.925781 233.632812 90.925781 239.050781 90.925781 244.488281 C 97.285156 244.488281 103.644531 244.488281 109.996094 244.488281 C 109.996094 239.050781 109.996094 233.632812 109.996094 228.199219 C 113.039062 228.199219 116.089844 228.199219 119.132812 228.199219 C 119.132812 241.355469 119.132812 254.527344 119.132812 267.683594 C 116.089844 267.683594 113.046875 267.683594 110 267.683594 C 110 262.40625 110 257.117188 110 251.84375 C 105.320312 251.84375 100.644531 251.84375 95.960938 251.84375 C 95.269531 251.84375 94.425781 251.972656 93.917969 251.34375 C 92.726562 250.066406 91.902344 248.488281 90.925781 247.050781 C 90.925781 253.921875 90.925781 260.800781 90.925781 267.671875 C 87.902344 267.671875 84.875 267.671875 81.855469 267.671875 Z M 81.851562 267.699219 "/>
<path style=" stroke:none;fill-rule:nonzero;fill:rgb(1.176471%,23.529412%,44.313725%);fill-opacity:1;" d="M 130.054688 228.261719 C 135.761719 228.132812 141.464844 228.261719 147.175781 228.261719 C 151.496094 228.261719 156.152344 229.960938 158.53125 233.777344 C 161.019531 237.539062 161.042969 242.210938 160.949219 246.566406 C 160.894531 253.066406 160.988281 259.566406 160.894531 266.066406 C 161 267.117188 160.019531 267.84375 159.035156 267.710938 C 152.863281 267.710938 146.695312 267.710938 140.527344 267.710938 C 136.539062 267.710938 132.289062 266.816406 129.265625 264.050781 C 126.074219 261.117188 125.15625 256.316406 126.09375 252.199219 C 126.867188 248.800781 129.46875 246.039062 132.640625 244.738281 C 136.316406 243.078125 140.441406 243.472656 144.359375 243.421875 C 145.195312 243.550781 146.257812 243.261719 146.828125 244.050781 C 148.371094 245.949219 149.820312 247.972656 150.832031 250.222656 C 147.5625 250.355469 144.296875 250.222656 141.03125 250.222656 C 139.503906 250.222656 137.882812 250.617188 136.769531 251.738281 C 134.773438 253.738281 135.085938 257.527344 137.425781 259.144531 C 138.75 260.078125 140.425781 260.238281 142.003906 260.25 C 145.265625 260.25 148.527344 260.25 151.796875 260.25 C 151.796875 254.550781 151.796875 248.867188 151.796875 243.171875 C 151.742188 241.355469 151.628906 239.421875 150.605469 237.867188 C 149.664062 236.449219 147.941406 235.777344 146.308594 235.644531 C 140.929688 235.367188 135.507812 235.828125 130.140625 235.421875 C 129.730469 233.050781 129.921875 230.632812 130.035156 228.25 Z M 130.054688 228.261719 "/>
<path style=" stroke:none;fill-rule:nonzero;fill:rgb(1.176471%,23.529412%,44.313725%);fill-opacity:1;" d="M 165.929688 228.300781 C 169.347656 228.132812 172.773438 228.171875 176.191406 228.300781 C 177.097656 228.300781 177.671875 229.09375 178.222656 229.683594 C 184.839844 237.738281 191.554688 245.699219 198.140625 253.761719 C 198.085938 245.261719 198.140625 236.761719 198.140625 228.277344 C 200.742188 228.277344 203.34375 228.277344 205.949219 228.277344 C 205.949219 241.433594 205.949219 254.59375 205.949219 267.761719 C 203.953125 267.761719 201.945312 267.761719 199.949219 267.761719 C 198.628906 267.761719 197.703125 266.75 196.925781 265.816406 C 190.429688 257.972656 183.863281 250.183594 177.378906 242.316406 C 177.378906 250.816406 177.378906 259.300781 177.378906 267.800781 C 174.746094 267.800781 172.109375 267.800781 169.480469 267.800781 C 169.480469 256.300781 169.53125 244.789062 169.425781 233.300781 C 168.777344 231.40625 166.832031 230.222656 165.921875 228.421875 Z M 165.929688 228.300781 "/>
<path style=" stroke:none;fill-rule:nonzero;fill:rgb(1.176471%,23.529412%,44.313725%);fill-opacity:1;" d="M 214.496094 228.199219 L 232.691406 228.199219 C 237.890625 228.328125 243.324219 229.75 247.121094 233.472656 C 250.480469 236.722656 251.964844 241.449219 252.175781 246.039062 C 252.398438 251 251.480469 256.25 248.523438 260.355469 C 246.070312 263.816406 242.234375 266.132812 238.140625 267.050781 C 234.644531 267.921875 231.027344 267.617188 227.46875 267.671875 C 223.828125 267.671875 220.1875 267.671875 216.546875 267.671875 C 215.371094 267.828125 214.371094 266.722656 214.507812 265.578125 C 214.453125 253.117188 214.507812 240.65625 214.507812 228.199219 M 223.574219 235.578125 L 223.574219 258.433594 C 223.535156 259.117188 223.574219 260.050781 224.609375 260 C 225.285156 260 233.027344 260.671875 236.800781 258.761719 C 239.925781 257.171875 241.515625 253.699219 241.933594 250.355469 C 242.328125 246.75 242.394531 242.828125 240.527344 239.59375 C 239.058594 237.011719 236.066406 235.722656 233.21875 235.605469 C 230.003906 235.472656 226.785156 235.605469 223.574219 235.605469 Z M 223.574219 235.578125 "/>
<path style=" stroke:none;fill-rule:nonzero;fill:rgb(1.176471%,23.529412%,44.313725%);fill-opacity:1;" d="M 256.257812 228.261719 C 263.582031 228.117188 270.921875 228.261719 278.25 228.261719 C 282.488281 228.261719 287.109375 229.144531 290.195312 232.277344 C 292.78125 234.816406 293.230469 238.972656 291.851562 242.222656 C 291.011719 244.238281 289.316406 245.683594 287.597656 246.933594 C 289.894531 247.84375 292.007812 249.367188 293.175781 251.59375 C 295.367188 255.722656 294.359375 261.355469 290.734375 264.34375 C 287.6875 266.921875 283.554688 267.738281 279.667969 267.761719 C 273.496094 267.761719 267.324219 267.761719 261.167969 267.761719 C 260.011719 267.761719 258.988281 266.828125 259.09375 265.671875 C 259.09375 255.683594 259.09375 245.699219 259.09375 235.722656 C 258.515625 233.15625 257.046875 230.894531 256.308594 228.355469 M 268.191406 235.40625 C 268.191406 238.199219 268.191406 241 268.191406 243.800781 C 271.394531 243.800781 274.613281 243.800781 277.816406 243.800781 C 278.929688 243.800781 280.140625 243.800781 281.136719 243.210938 C 283.015625 242.183594 283.738281 239.59375 282.871094 237.683594 C 282.015625 236.027344 280.035156 235.40625 278.289062 235.394531 C 274.925781 235.394531 271.554688 235.394531 268.191406 235.394531 M 268.191406 250.472656 C 268.191406 253.632812 268.0625 256.789062 268.324219 259.949219 C 268.453125 260.078125 268.691406 260.316406 268.820312 260.433594 C 271.371094 260.59375 273.917969 260.433594 276.464844 260.566406 C 278.355469 260.566406 280.335938 260.75 282.121094 259.972656 C 285.011719 258.761719 285.890625 254.472656 283.789062 252.171875 C 282.515625 250.867188 280.597656 250.566406 278.867188 250.539062 C 275.320312 250.539062 271.777344 250.539062 268.246094 250.539062 Z M 268.191406 250.472656 "/>
<path style=" stroke:none;fill-rule:nonzero;fill:rgb(1.176471%,23.529412%,44.313725%);fill-opacity:1;" d="M 372.949219 262.238281 C 372.949219 250.894531 372.949219 239.550781 372.949219 228.199219 L 382.019531 228.199219 L 382.019531 259.738281 L 400.230469 259.738281 C 400.519531 262.25 400.546875 265.183594 400.035156 267.671875 L 378.4375 267.671875 C 375.46875 267.800781 372.949219 265.171875 372.960938 262.238281 Z M 372.949219 262.238281 "/>
<path style=" stroke:none;fill-rule:nonzero;fill:rgb(66.27451%,14.901961%,10.980392%);fill-opacity:1;" d="M 6.566406 228.277344 L 38.085938 228.277344 C 38.292969 230.65625 38.242188 233.066406 38.085938 235.460938 L 18.46875 235.605469 L 18.46875 245.90625 L 36.398438 246.039062 C 36.664062 248.328125 36.839844 250.800781 36.320312 253.050781 L 24.117188 253.183594 C 23.21875 253.050781 22.027344 253.449219 21.390625 252.617188 C 20.269531 251.261719 19.414062 249.722656 18.480469 248.238281 C 18.429688 254.738281 18.429688 261.238281 18.480469 267.722656 L 9.308594 267.722656 C 9.359375 257.671875 9.308594 247.605469 9.359375 237.539062 C 9.683594 234.199219 7.378906 231.449219 6.574219 228.328125 Z M 6.566406 228.277344 "/>
<path style=" stroke:none;fill-rule:nonzero;fill:rgb(1.176471%,23.529412%,44.313725%);fill-opacity:1;" d="M 304.019531 228.261719 C 309.730469 228.132812 315.445312 228.261719 321.140625 228.261719 C 325.460938 228.261719 330.121094 229.960938 332.496094 233.777344 C 334.992188 237.539062 335.019531 242.210938 334.914062 246.566406 C 334.914062 253.066406 334.914062 259.566406 334.914062 266.066406 C 335.046875 267.117188 334.035156 267.84375 333.050781 267.710938 C 326.878906 267.710938 320.707031 267.710938 314.539062 267.710938 C 310.558594 267.710938 306.304688 266.816406 303.285156 264.050781 C 300.09375 261.117188 299.175781 256.316406 300.109375 252.199219 C 300.882812 248.800781 303.484375 246.039062 306.648438 244.738281 C 310.335938 243.078125 314.457031 243.472656 318.371094 243.421875 C 319.210938 243.550781 320.273438 243.261719 320.839844 244.050781 C 322.386719 245.949219 323.832031 247.972656 324.84375 250.222656 C 321.574219 250.355469 318.304688 250.222656 315.050781 250.222656 C 313.511719 250.222656 311.898438 250.617188 310.78125 251.738281 C 308.785156 253.738281 309.101562 257.527344 311.4375 259.144531 C 312.765625 260.078125 314.445312 260.238281 316.019531 260.25 C 319.277344 260.25 322.546875 260.25 325.816406 260.25 C 325.816406 254.550781 325.816406 248.867188 325.816406 243.171875 C 325.816406 241.355469 325.644531 239.421875 324.621094 237.867188 C 323.675781 236.449219 321.957031 235.777344 320.328125 235.644531 C 314.945312 235.367188 309.523438 235.828125 304.152344 235.421875 C 303.746094 233.050781 303.941406 230.632812 304.019531 228.25 Z M 304.019531 228.261719 "/>
<path style=" stroke:none;fill-rule:nonzero;fill:rgb(1.176471%,23.529412%,44.313725%);fill-opacity:1;" d="M 341.792969 262.238281 C 341.792969 250.894531 341.792969 239.550781 341.792969 228.199219 L 350.878906 228.199219 L 350.878906 259.738281 L 369.089844 259.738281 C 369.363281 262.25 369.402344 265.183594 368.890625 267.671875 L 347.292969 267.671875 C 344.328125 267.800781 341.792969 265.171875 341.804688 262.238281 Z M 341.792969 262.238281 "/>
</g>
</svg>
