<?xml version="1.0" encoding="UTF-8" standalone="no"?>
<svg xmlns="http://www.w3.org/2000/svg" version="1.1" viewBox="0 0 310 208.53" height="208.53" width="310">
 <defs/>
 <g transform="translate(79.404,-428.42)">
  <path d="m 48.544,433.43 0.459,0 c 5.623,8.23 12.826,15.74 21.88,20.16 0.791,-3.89 2.192,-7.63 4.323,-10.97 2.35,3.77 4.292,7.92 7.613,10.98 9.154,8.26 21.691,11.58 30.731,19.98 5.21,4.75 7.22,12.39 4.78,19.04 8.37,4.17 16.46,10.99 18.19,20.63 l 0,2.92 c -7.61,-1.55 -15.59,-2.24 -23.22,-0.54 -3.26,0.81 -7.41,2.25 -7.99,6.04 -0.86,5.36 3.76,9.84 8.49,11.3 4.15,1.2 8.64,3.24 10.4,7.48 1.66,4.33 2.26,9.04 2.11,13.64 -0.1,2.83 -2.34,5.41 -5.19,5.64 -2.05,0.11 -4.05,-0.49 -6.05,-0.73 4.49,4.6 12.36,4.29 16.57,9.13 -1.06,3.93 -6.81,5.43 -9.96,6.35 -11.26,2.53 -23.785,1.19 -33.54,-5.25 1.142,3.25 3.062,6.36 3.282,9.88 0.241,1.35 -0.611,2.42 -1.831,2.84 -5.643,0.18 -10.807,-4.96 -13.466,-8.63 -4.762,-7.1 -6.153,-15.83 -6.673,-24.19 -6.672,5.29 -10.964,13.16 -12.535,21.45 -0.731,2.57 -0.951,5.62 -3.052,7.51 -2.951,0.1 -5.332,-2.06 -7.493,-3.81 -8.883,-8.12 -14.464,-19.53 -16.192,-31.4 -1.037,1.53 -2.084,3.24 -3.927,3.85 -2.293,0.26 -3.476,-2.06 -3.863,-3.94 -1.226,-5.74 -1.068,-11.74 0.146,-17.48 1.885,-9.2 5.414,-18.31 11.759,-25.38 2.393,-2.92 5.474,-5.17 8.095,-7.89 -3.792,1.51 -8.168,0.17 -11.488,-1.92 -5.675,-3.83 -7.947,-10.85 -8.806,-17.35 -1.12,-9.81 -1.151,-19.83 0.451,-29.61 6.125,6.13 14.411,9.37 22.685,11.35 -1.091,-7.22 0.389,-14.49 3.301,-21.09" style="fill:#ffffff"/>
  <path d="m -46.483,601.91 24.01,0 c 0.157,1.81 0.119,3.64 0,5.46 l -14.943,0.11 0,7.83 13.656,0.1 c 0.202,1.74 0.336,3.62 -0.06,5.33 l -9.294,0.1 c -0.684,-0.1 -1.592,0.2 -2.076,-0.43 -0.854,-1.03 -1.505,-2.2 -2.217,-3.33 -0.04,4.94 -0.04,9.88 0,14.81 l -6.987,0 c 0.04,-7.64 0,-15.29 0.04,-22.94 0.246,-2.54 -1.508,-4.63 -2.123,-7 z" style="fill:#a9261c"/>
  <g>
   <g style="fill:#d44332">
    <path d="m 50.448,459.32 c -1.363,-5.82 -1.458,-11.94 -0.179,-17.79 2.181,3.53 5.077,6.54 8.17,9.28 4.615,3.93 10.028,7.27 16.112,8.24 -0.05,-2.56 0.203,-5.14 1.103,-7.55 1.805,4.27 5.607,7.19 9.417,9.58 6.695,4.18 14.061,7.18 20.659,11.53 3.13,2.1 6.19,4.53 8.15,7.81 1.89,3.11 2.39,7.07 1.19,10.51 -0.88,-2.56 -2.01,-5.13 -3.97,-7.06 -3.46,-3.49 -8,-5.61 -12.524,-7.36 -10.806,-4.16 -22.326,-6.47 -32.673,-11.8 -3.072,-1.52 -5.662,-3.8 -8.202,-6.07 -0.127,2.59 0.04,5.19 0.689,7.7 -7.123,2.07 -14.828,1.22 -21.696,-1.38 -1.774,-0.66 -3.481,-1.47 -5.205,-2.24 -0.51,4.9 -0.348,9.96 1.05,14.72 0.917,3.23 2.78,6.25 5.575,8.18 2.077,1.6 4.687,2.31 7.279,2.4 -4.125,1.22 -8.983,1.2 -12.585,-1.41 -3.084,-2.3 -4.435,-6.11 -5.405,-9.68 -2.007,-8.27 -2.184,-16.86 -1.95,-25.32 3.001,2.79 6.846,4.47 10.734,5.63 4.626,1.34 9.432,2.2 14.261,2.08 z"/>
    <path d="m 100.64,524.92 c 0.19,-1.27 1.19,-2.2 1.86,-3.25 -0.4,3.28 -0.1,6.88 2.18,9.47 3.64,4.35 9.47,5.54 14.21,8.22 2.7,2.14 3.21,5.86 3.76,9.04 -0.85,0.51 -1.7,1.2 -2.74,1.22 -2.17,0.1 -4.17,-0.94 -5.99,-2 -4.42,-2.69 -8.13,-6.48 -10.9,-10.83 -1.32,-2.17 -2.62,-4.5 -2.75,-7.09 0,-1.6 0.24,-3.19 0.37,-4.78 z"/>
   </g>
   <g style="fill:#a9261c">
    <path d="m 57.701,458.64 c 2.54,2.27 5.13,4.55 8.202,6.07 10.349,5.33 21.867,7.64 32.673,11.8 4.524,1.75 9.064,3.87 12.524,7.36 1.96,1.93 3.09,4.5 3.97,7.06 0,0.13 0.11,0.37 0.15,0.49 -1.19,-1.13 -2.15,-2.49 -3.45,-3.52 -4.38,-3.61 -9.87,-5.57 -15.343,-6.83 -5.818,-1.31 -11.813,-1.69 -17.767,-1.49 -10.364,0.13 -20.539,2.98 -29.971,7.14 -1.079,0.48 -2.132,1.05 -3.293,1.3 -2.595,-0.1 -5.205,-0.8 -7.282,-2.4 -2.795,-1.93 -4.658,-4.95 -5.575,-8.18 -1.398,-4.76 -1.56,-9.82 -1.05,-14.72 1.727,0.77 3.434,1.58 5.205,2.24 6.868,2.6 14.576,3.45 21.696,1.38 -0.666,-2.51 -0.813,-5.11 -0.689,-7.7 z"/>
    <path d="m 100.67,524.56 0,0.36 c -0.14,1.59 -0.41,3.18 -0.37,4.78 0.12,2.59 1.43,4.92 2.74,7.09 2.78,4.35 6.49,8.14 10.91,10.83 1.82,1.06 3.82,2.07 5.98,2 1.05,0 1.89,-0.71 2.75,-1.22 0.1,1.97 0.32,3.96 0.1,5.93 -0.2,1.28 -1.75,1.67 -2.85,1.43 -2.98,-0.5 -5.56,-2.22 -7.95,-3.96 -4.56,-3.51 -8.86,-7.65 -11.31,-12.93 -2.116,-4.46 -2.272,-9.91 0.1,-14.31 z"/>
   </g>
   <g style="fill:#033c71">
    <path d="m 79.597,483.74 c 7.696,-0.97 15.609,0 22.923,2.53 4.56,1.63 9.24,4.24 11.39,8.81 7.79,3.26 15.12,8.8 18.6,16.71 -5.91,-2.87 -12.21,-4.82 -18.58,-6.4 -5.12,-1.19 -10.29,-2.23 -15.524,-2.81 0.723,-0.85 1.455,-1.77 1.664,-2.9 0.35,-1.23 -0.08,-2.48 -0.449,-3.65 -0.05,2.29 -1.574,5.05 -4.178,4.89 0.269,-2.43 1.395,-4.64 2.095,-6.96 -1.907,-0.81 -4.271,-0.78 -5.873,0.66 -2.104,1.68 -2.379,4.92 -0.857,7.08 -4.279,-0.27 -8.572,-0.1 -12.828,0.39 -3.42,0.4 -6.849,0.93 -10.118,2.05 -0.694,0.23 -1.403,0.42 -2.118,0.57 0.159,-1.63 0.715,-3.18 1.221,-4.72 1.123,-3.37 2.538,-6.7 4.664,-9.57 1.131,1.03 2.546,1.88 4.134,1.78 2.57,0 4.85,-2.23 4.98,-4.79 0.147,-1.34 -0.469,-2.57 -1.146,-3.67 z"/>
    <path d="m 56.457,489.37 c 4.722,-2.13 9.684,-3.67 14.724,-4.83 -7.407,7.57 -12.343,17.61 -13.541,28.16 -0.08,0.68 -0.165,1.61 0.527,2.01 0.66,0.28 1.38,0 2.005,-0.23 13.413,-6.15 28.53,-7.43 43.098,-6.41 6.07,0.46 12.12,1.3 18.09,2.53 1.17,0.24 2.37,0.43 3.42,1.03 -1.48,0.4 -3.02,0.24 -4.53,0.3 -3.86,0.12 -7.79,0.51 -11.4,1.97 -5.22,2.24 -9.776,6.41 -11.778,11.81 -1.962,5.17 -1.698,10.93 -0.498,16.25 1.427,6.06 4.826,11.56 9.386,15.77 4.68,4.36 10.4,7.55 16.49,9.48 1.23,0.43 2.68,0.47 3.57,1.53 -1.16,1.09 -2.8,1.27 -4.27,1.66 -6.99,1.67 -14.39,1.87 -21.39,0.1 -6.025,-1.52 -11.785,-4.39 -16.386,-8.61 -0.899,4.6 0.319,9.35 2.497,13.42 0.46,0.79 0.816,1.64 0.961,2.54 -5.271,-1.71 -9.689,-9.15 -11.318,-13.44 -1.595,-4.17 -2.283,-8.63 -2.604,-13.06 -0.08,-0.73 0.06,-1.45 0.289,-2.14 4.976,4.17 10.942,7.51 17.501,8.18 1.244,0 2.662,0.29 3.77,-0.43 0.463,-0.57 0,-1.24 -0.327,-1.72 -3.631,-4.89 -5.622,-10.84 -6.466,-16.83 -0.978,-7.32 0.211,-15.05 4.07,-21.42 0.374,-0.67 0.987,-1.48 0.565,-2.28 -0.591,-0.66 -1.58,-0.42 -2.347,-0.36 -6.437,0.91 -12.805,2.7 -18.56,5.78 -5.028,2.67 -9.545,6.3 -13.164,10.7 -7.742,9.38 -11.338,21.9 -10.401,33.97 0.07,1.48 0.503,2.94 0.382,4.43 -0.738,0.64 -1.594,-0.19 -2.101,-0.73 -9.449,-10.57 -14.029,-25.01 -13.522,-39.09 -2.014,2.22 -3.594,4.8 -4.725,7.57 -0.556,1.19 -0.839,2.51 -1.548,3.63 -0.816,0.58 -1.244,-0.46 -1.212,-1.14 -0.59,-12.07 2.725,-24.5 10.109,-34.17 5.309,-7.03 12.629,-12.36 20.634,-15.93 z"/>
    <path d="m 74.453,528.79 c 1.331,-0.67 2.662,-1.61 4.209,-1.58 1.077,0 1.109,1.32 1.123,2.12 -0.04,7.07 1.884,14.13 5.364,20.28 0.255,0.48 0.483,0.97 0.703,1.47 -5.503,-0.6 -10.204,-4.15 -13.644,-8.31 -5.003,2.55 -9.183,6.55 -12.328,11.16 -3.452,5.05 -5.526,10.93 -6.608,16.91 -0.148,0.46 -0.353,0.9 -0.622,1.3 -0.452,-0.57 -0.926,-1.18 -0.984,-1.93 -1.024,-8.03 0.735,-16.34 4.719,-23.37 4.233,-7.51 10.572,-13.82 18.068,-18.05 z"/>
   </g>
  </g>
  <g style="fill:#033c71">
   <path d="m -17.059,631.87 c 0,-10.01 0,-20.01 0,-30.02 2.303,0 4.608,0 6.911,0 0,4.13 0,8.25 0,12.38 4.8437,0 9.68695,0 14.5244,0 0,-4.13 0,-8.25 0,-12.38 2.3175,0 4.6407,0 6.9586,0 0,10 0,20.01 0,30.01 -2.3179,0 -4.6354,0 -6.9557,0 0,-4.01 0,-8.03 0,-12.04 -3.56445,0 -7.126,0 -10.6933,0 -0.5266,0 -1.1689,0.1 -1.5566,-0.38 -0.9055,-0.97 -1.5334,-2.17 -2.2774,-3.26 0,5.22 0,10.45 0,15.67 -2.303,0 -4.608,0 -6.909,0 z"/>
   <path d="m 19.655,601.9 c 4.346,-0.1 8.692,0 13.04,0 3.29,0 6.837,1.29 8.651,4.19 1.895,2.86 1.912,6.41 1.84,9.72 -0.04,4.94 0.03,9.88 -0.04,14.82 0.08,0.8 -0.668,1.35 -1.417,1.25 -4.702,0 -9.4,0 -14.096,0 -3.038,0 -6.275,-0.68 -8.578,-2.78 -2.431,-2.23 -3.131,-5.88 -2.416,-9.01 0.587,-2.58 2.569,-4.68 4.985,-5.67 2.8,-1.26 5.942,-0.96 8.925,-1 0.637,0.1 1.447,-0.12 1.881,0.48 1.177,1.44 2.28,2.98 3.049,4.69 -2.488,0.1 -4.976,0 -7.464,0 -1.163,0 -2.399,0.3 -3.246,1.15 -1.519,1.52 -1.282,4.4 0.5,5.63 1.01,0.71 2.286,0.83 3.486,0.84 2.486,0 4.971,0 7.459,0 0,-4.33 0,-8.65 0,-12.98 -0.04,-1.38 -0.127,-2.85 -0.905,-4.03 -0.718,-1.08 -2.029,-1.59 -3.273,-1.69 -4.099,-0.21 -8.228,0.14 -12.316,-0.17 -0.312,-1.8 -0.165,-3.64 -0.08,-5.45 z"/>
   <path d="m 46.979,601.93 c 2.604,-0.13 5.213,-0.1 7.817,0 0.689,0 1.126,0.6 1.548,1.05 5.04,6.12 10.153,12.17 15.169,18.3 -0.04,-6.46 0,-12.92 0,-19.37 1.982,0 3.964,0 5.949,0 0,10 0,20 0,30.01 -1.522,0 -3.05,0 -4.571,0 -1.004,0 -1.71,-0.77 -2.301,-1.48 -4.95,-5.96 -9.952,-11.88 -14.891,-17.86 0,6.46 0,12.91 0,19.37 -2.005,0 -4.013,0 -6.015,0 0,-8.74 0.04,-17.49 -0.04,-26.22 -0.494,-1.44 -1.976,-2.34 -2.67,-3.71 z"/>
   <path d="m 83.972,601.85 13.858,0 c 3.96,0.1 8.1,1.18 10.99,4.01 2.56,2.47 3.69,6.06 3.85,9.55 0.17,3.77 -0.53,7.76 -2.78,10.88 -1.87,2.63 -4.79,4.39 -7.91,5.09 -2.663,0.66 -5.417,0.43 -8.128,0.47 -2.772,0 -5.546,0 -8.318,0 -0.897,0.12 -1.658,-0.72 -1.554,-1.59 -0.04,-9.47 0,-18.94 0,-28.41 m 6.906,5.61 0,17.37 c -0.03,0.52 0,1.23 0.787,1.19 0.515,0 6.414,0.51 9.287,-0.94 2.38,-1.21 3.59,-3.85 3.91,-6.39 0.3,-2.74 0.35,-5.72 -1.07,-8.18 -1.12,-1.96 -3.4,-2.94 -5.568,-3.03 -2.448,-0.1 -4.901,0 -7.346,0 z"/>
   <path d="m 115.78,601.9 c 5.58,-0.11 11.17,0 16.75,0 3.23,0 6.75,0.67 9.1,3.05 1.97,1.93 2.31,5.09 1.26,7.56 -0.64,1.53 -1.93,2.63 -3.24,3.58 1.75,0.69 3.36,1.85 4.25,3.54 1.67,3.14 0.9,7.42 -1.86,9.69 -2.32,1.96 -5.47,2.58 -8.43,2.6 -4.7,0 -9.4,0 -14.09,0 -0.88,0 -1.66,-0.71 -1.58,-1.59 0,-7.59 0,-15.18 0,-22.76 -0.44,-1.95 -1.56,-3.67 -2.12,-5.6 m 9.05,5.36 c 0,2.12 0,4.25 0,6.38 2.44,0 4.89,0 7.33,0 0.85,0 1.77,0 2.53,-0.45 1.43,-0.78 1.98,-2.75 1.32,-4.2 -0.65,-1.26 -2.16,-1.73 -3.49,-1.74 -2.56,0 -5.13,0 -7.69,0 m 0,11.46 c 0,2.4 -0.1,4.8 0.1,7.2 0.1,0.1 0.28,0.28 0.38,0.37 1.94,0.12 3.88,0 5.82,0.1 1.44,0 2.95,0.14 4.31,-0.45 2.2,-0.92 2.87,-4.18 1.27,-5.93 -0.97,-0.99 -2.43,-1.22 -3.75,-1.24 -2.7,0 -5.4,0 -8.09,0 z"/>
   <path d="m 204.66,627.72 c 0,-8.62 0,-17.24 0,-25.87 l 6.91,0 0,23.97 13.87,0 c 0.22,1.91 0.24,4.14 -0.15,6.03 l -16.45,0 c -2.26,0.1 -4.18,-1.9 -4.17,-4.13 z"/>
  </g>
  <path d="m -74.404,601.91 24.01,0 c 0.157,1.81 0.119,3.64 0,5.46 l -14.943,0.11 0,7.83 13.656,0.1 c 0.203,1.74 0.336,3.62 -0.06,5.33 l -9.295,0.1 c -0.683,-0.1 -1.591,0.2 -2.075,-0.43 -0.854,-1.03 -1.505,-2.2 -2.217,-3.33 -0.04,4.94 -0.04,9.88 0,14.81 l -6.987,0 c 0.04,-7.64 0,-15.29 0.04,-22.94 0.246,-2.54 -1.508,-4.63 -2.123,-7 z" style="fill:#a9261c"/>
  <g style="fill:#033c71">
   <path d="m 152.16,601.9 c 4.35,-0.1 8.7,0 13.04,0 3.29,0 6.84,1.29 8.65,4.19 1.9,2.86 1.92,6.41 1.84,9.72 0,4.94 0,9.88 0,14.82 0.1,0.8 -0.67,1.35 -1.42,1.25 -4.7,0 -9.4,0 -14.1,0 -3.03,0 -6.27,-0.68 -8.57,-2.78 -2.43,-2.23 -3.13,-5.88 -2.42,-9.01 0.59,-2.58 2.57,-4.68 4.98,-5.67 2.81,-1.26 5.95,-0.96 8.93,-1 0.64,0.1 1.45,-0.12 1.88,0.48 1.18,1.44 2.28,2.98 3.05,4.69 -2.49,0.1 -4.98,0 -7.46,0 -1.17,0 -2.4,0.3 -3.25,1.15 -1.52,1.52 -1.28,4.4 0.5,5.63 1.01,0.71 2.29,0.83 3.49,0.84 2.48,0 4.97,0 7.46,0 0,-4.33 0,-8.65 0,-12.98 0,-1.38 -0.13,-2.85 -0.91,-4.03 -0.72,-1.08 -2.03,-1.59 -3.27,-1.69 -4.1,-0.21 -8.23,0.14 -12.32,-0.17 -0.31,-1.8 -0.16,-3.64 -0.1,-5.45 z"/>
   <path d="m 180.93,627.72 c 0,-8.62 0,-17.24 0,-25.87 l 6.92,0 0,23.97 13.87,0 c 0.21,1.91 0.24,4.14 -0.15,6.03 l -16.45,0 c -2.26,0.1 -4.19,-1.9 -4.18,-4.13 z"/>
  </g>
 </g>
</svg>
